<svg id="Layer_1" data-name="Layer 1" xmlns="http://www.w3.org/2000/svg" viewBox="0 0 1806.68 563.79"><defs><style>.cls-1{fill:#f5a617;}</style></defs><path class="cls-1" d="M457.37,189.41A97.15,97.15,0,0,0,310.83,62.6l-95.95,95.94c-14.71,14.71-29.77,31.53-52.77,29.28-18.67-1.83-35.42-12.71-51.77-21.07a177.16,177.16,0,0,1-19-10.77c-5.94-4-10.6-8.93-15.61-13.95L51.06,166.66l7.4,7.4C74.39,190,98.32,200.38,118.6,209.32c36.91,16.27,75.77,19,106.28-11.53L326.07,96.6l.17.24,8.18-8.47c.33-.33.6-.66,1.05-1.17a62.32,62.32,0,0,1,96.87,77.18l-13.53-13.53-25.45,25.41a93.9,93.9,0,0,0-99.69,21.23l-31.85,31.85L252,219.52l-24.63,24.61,39.24,39.25-58.85,58.88,24.63,24.64L291.25,308l24.43,24.43-58.86,58.89L281.43,416l58.88-58.88,39.25,39.25,24.64-24.64-9.82-9.82,31.85-31.82a93.87,93.87,0,0,0,21.2-99.72l25.44-25.42Zm-38.56,74.36a58.53,58.53,0,0,1-16.53,41l-32.54,32.51L286.46,254l31.82-31.82a58.88,58.88,0,0,1,100.53,41.64Z"/><path class="cls-1" d="M550.38,548.43a52.06,52.06,0,0,1-53.56,12.63L395,527.12c-.69-.24-1.35-.48-2-.78-17.3,9.16-55.77,24.88-116.36,24.88C124.09,551.22,0,427.16,0,274.63,0,133.22,106.69,16.23,243.83,0V45.23c-112.32,16-199,112.74-199,229.4,0,127.8,104,231.74,231.74,231.74,67.63,0,100.17-22.42,100.47-22.66a22.28,22.28,0,0,1,26.1-.3,22,22,0,0,1,6,1.14l101.9,34a7.18,7.18,0,0,0,7.63-1.83,7.09,7.09,0,0,0,1.8-7.63l-34-101.88a22,22,0,0,1-1.13-6.25,22.36,22.36,0,0,1,0-25.42c.12-.21,22.93-35.12,22.93-100.89A229.45,229.45,0,0,0,504,230.18h45.56a276.11,276.11,0,0,1,3.59,44.45c0,59.4-16,98.76-25,116.19A19.41,19.41,0,0,1,529,393l34,101.88A52,52,0,0,1,550.38,548.43Z"/><path d="M741.33,377.92v21.32H719q-27.16,0-40.58-12.9T665,342.84V232.45H636.44v-21H665V164H689.4v47.46H741v21H689.4V343.19q0,19.95,7.22,27.34t25.44,7.39Z"/><path d="M879.57,369q17.19-12.72,20.63-34.39h25.45q-5.16,29.91-28.54,48.48T838,401.64q-26.84,0-47.63-11.52a80.53,80.53,0,0,1-32.5-33.35q-11.69-21.82-11.7-51.42t11.7-51.4a80.62,80.62,0,0,1,32.5-33.36q20.8-11.53,47.63-11.52,27.51,0,47.63,11.52a78.18,78.18,0,0,1,30.6,30.78,86.21,86.21,0,0,1,10.49,41.95,103.48,103.48,0,0,1-1.37,17.54H769.87q.33,23.72,9.8,39.72t24.59,23.55a71.9,71.9,0,0,0,32.66,7.57Q862.38,381.7,879.57,369Zm-75-132.75q-15.14,7.58-24.59,23.22t-10.14,39H902.61q1.36-23-7.57-38.86T871,236.23a76.52,76.52,0,0,0-66.37,0Z"/><path d="M1050.14,399.24l-51.59-76.69-47.8,76.69H924.27l61.21-96.64-61.21-91.13h27.52L1002,286.1l47.11-74.63h26.49l-60.87,93.88,62.93,93.89Z"/><path d="M1168.43,377.92v21.32h-22.35q-27.16,0-40.58-12.9t-13.41-43.5V232.45h-28.55v-21h28.55V164h24.42v47.46h51.58v21h-51.58V343.19q0,19.95,7.22,27.34t25.44,7.39Z"/><path class="cls-1" d="M1328.17,220.59Q1348,232.11,1359.12,254t11.18,51.4q0,29.25-11.18,51.08T1328,390q-19.95,11.7-45.4,11.69-28.87,0-48.83-14.78a75.12,75.12,0,0,1-27.51-39.2V488h-24.07V211.47h24.07v51.59a75.08,75.08,0,0,1,27.51-39.2q19.95-14.79,48.83-14.79Q1308.4,209.07,1328.17,220.59Zm-88,19.09A64.08,64.08,0,0,0,1215.2,266q-9,17-8.94,39.37t8.94,39.38A64.17,64.17,0,0,0,1240.14,371a70.18,70.18,0,0,0,35.93,9.28q32,0,50.9-20.11t18.91-54.86q0-34.73-18.91-54.85t-50.9-20.11Q1256.12,230.39,1240.14,239.68Z"/><path class="cls-1" d="M1412.25,144.76V399.24h-24.42V144.76Z"/><path class="cls-1" d="M1600.71,211.47V399.24h-24.08V352.81q-7.22,24.44-26.13,37.14t-43.33,12.73q-33,0-53.48-20.81t-20.46-61V211.47h24.07v107.3q0,31,15.47,47.28t42.3,16.34q28.2,0,44.88-18.06t16.68-53.13V211.47Z"/><path class="cls-1" d="M1782.93,211.44V263.1a74.86,74.86,0,0,0-27.65-39.28q-20.15-14.67-48.63-14.72-25.87,0-45.77,11.52t-31.11,33.29q-11.18,21.84-11.19,51.49c0,19.4,3.74,36.49,11.19,51s17.85,25.75,31.28,33.55,28.61,11.62,45.6,11.62c19,0,35.2-4.87,48.63-14.74a74.84,74.84,0,0,0,27.65-39.18v56c0,13.77-2.79,25.65-8.42,35.79a56.24,56.24,0,0,1-23,22.88,68.72,68.72,0,0,1-32.5,7.71c-17.42,0-31.64-4-42.83-12.05s-18.71-18.87-22.79-32.67h-24.1q7.17,30.28,30.79,48T1720.35,491q25.08,0,44.71-10.83a76.34,76.34,0,0,0,30.62-30.59q11-19.75,11-45.93V211.44Zm-29,79.43a42.43,42.43,0,0,1-11.5,39.33l-4.73,4.7,3.37,3.34-21.6,22.14-14-14.13-20.88,20.88-17.41-17.39-.15.14-21.59-22.12L1666.23,307l-13.89-14,21.76-21.76,3.49,3.49,4.82-4.8a42.68,42.68,0,0,1,39.23-11.41L1733.23,247l32.19,32.38Z"/></svg>